<svg width="967" height="1095" viewBox="0 0 967 1095" fill="none" xmlns="http://www.w3.org/2000/svg">
<g opacity="0.6" filter="url(#filter0_d)">
<path d="M32.8561 -452.987C56.8498 -485.635 92.8403 -502.819 140.828 -506.255C228.233 -513.129 277.934 -471.889 289.931 -382.536C343.06 -23.4058 401.33 280.738 463.028 529.895L838.357 -186.647C872.634 -251.943 915.48 -286.31 966.895 -289.746C1042.3 -294.901 1088.58 -246.788 1107.43 -145.407C1150.27 83.1301 1205.12 277.301 1270.24 442.26C1314.8 5.80567 1390.21 -308.648 1496.47 -502.819C1522.18 -550.932 1559.88 -574.988 1609.58 -578.425C1649 -581.861 1684.99 -569.833 1717.55 -544.058C1750.12 -518.283 1767.25 -485.636 1770.68 -446.114C1772.4 -415.184 1767.25 -389.409 1753.54 -363.634C1686.7 -239.915 1631.86 -31.9973 1587.3 256.681C1544.46 536.768 1529.03 754.995 1539.31 911.363C1542.74 954.321 1535.89 992.124 1518.75 1024.77C1498.18 1062.58 1467.33 1083.2 1427.92 1086.63C1383.36 1090.07 1337.08 1069.45 1292.52 1023.05C1133.14 859.813 1006.31 615.811 913.766 291.048C802.367 510.994 720.103 675.953 666.974 785.925C565.858 980.096 480.166 1079.76 408.186 1084.91C361.912 1088.35 322.494 1048.83 288.217 966.35C200.812 741.249 106.551 306.513 5.43496 -337.859C0.29346 -382.536 8.86246 -422.057 32.8561 -452.987Z" fill="white"/>
<path d="M33.2512 -452.681L33.2513 -452.681L33.259 -452.691C57.1456 -485.194 92.9843 -502.328 140.863 -505.757L140.867 -505.757C184.487 -509.187 218.619 -500.606 243.338 -480.096C268.06 -459.583 283.447 -427.071 289.435 -382.469L289.436 -382.463C342.567 -23.3217 400.84 280.838 462.543 530.015L462.86 531.294L463.471 530.127L838.8 -186.415C873.034 -251.63 915.755 -285.827 966.928 -289.247L966.929 -289.248C1004.51 -291.816 1034.78 -281.117 1058.01 -257.18C1081.27 -233.223 1097.52 -195.959 1106.94 -145.316C1149.79 83.2472 1204.64 277.45 1269.78 442.444L1270.74 442.311C1315.3 5.87073 1390.7 -308.499 1496.91 -502.579L1496.91 -502.583C1522.54 -550.551 1560.09 -574.502 1609.62 -577.926L1609.62 -577.927C1648.9 -581.351 1684.77 -569.371 1717.24 -543.666C1749.7 -517.979 1766.77 -485.46 1770.18 -446.079C1771.89 -415.234 1766.76 -389.553 1753.1 -363.869C1686.22 -240.068 1631.37 -32.0776 1586.81 256.605L1587.3 256.681L1586.81 256.606C1543.96 536.707 1528.53 754.975 1538.82 911.396L1538.82 911.403C1542.24 954.282 1535.39 991.987 1518.31 1024.54C1497.82 1062.2 1467.11 1082.71 1427.88 1086.13C1383.51 1089.56 1337.38 1069.03 1292.88 1022.71L1292.88 1022.7C1133.57 859.545 1006.78 615.629 914.247 290.911L913.897 289.683L913.32 290.822C801.923 510.763 719.658 675.723 666.527 785.7C615.978 882.768 569.298 956.186 526.276 1005.97C483.237 1055.78 443.933 1081.85 408.15 1084.42L408.148 1084.42C385.187 1086.12 363.899 1077.18 344.055 1057.5C324.199 1037.8 305.807 1007.37 288.681 966.163C201.299 741.119 107.046 306.439 5.9305 -337.927C0.802623 -382.502 9.35781 -421.88 33.2512 -452.681Z" stroke="black"/>
</g>
<defs>
<filter id="filter0_d" x="0" y="-579" width="1775" height="1674" filterUnits="userSpaceOnUse" color-interpolation-filters="sRGB">
<feFlood flood-opacity="0" result="BackgroundImageFix"/>
<feColorMatrix in="SourceAlpha" type="matrix" values="0 0 0 0 0 0 0 0 0 0 0 0 0 0 0 0 0 0 127 0"/>
<feOffset dy="4"/>
<feGaussianBlur stdDeviation="2"/>
<feColorMatrix type="matrix" values="0 0 0 0 0 0 0 0 0 0 0 0 0 0 0 0 0 0 0.25 0"/>
<feBlend mode="normal" in2="BackgroundImageFix" result="effect1_dropShadow"/>
<feBlend mode="normal" in="SourceGraphic" in2="effect1_dropShadow" result="shape"/>
</filter>
</defs>
</svg>
